<?xml version="1.0" encoding="utf-8"?>
<!-- Generator: Adobe Illustrator 22.0.0, SVG Export Plug-In . SVG Version: 6.00 Build 0)  -->
<svg version="1.1" xmlns="http://www.w3.org/2000/svg" xmlns:xlink="http://www.w3.org/1999/xlink" x="0px" y="0px"
	 viewBox="0 0 1508.6 509.5" style="enable-background:new 0 0 1508.6 509.5;" xml:space="preserve">
<style type="text/css">
	.st0{fill:none;stroke:#000000;stroke-width:12;stroke-miterlimit:10;}
	.st1{fill:#FFFFFF;stroke:#000000;stroke-width:12;stroke-miterlimit:10;}
	.st2{fill:#F83571;}
	.st3{opacity:0.57;fill:#F25A91;}
	.st4{fill:none;stroke:#000000;stroke-width:4;stroke-miterlimit:10;}
	.st5{fill:#3445AF;}
	.st6{font-family:'ArialRoundedMTBold';}
	.st7{font-size:379.7779px;}
	.st8{fill:#FDE084;stroke:#000000;stroke-width:5;stroke-miterlimit:10;}
	.st9{fill:none;stroke:#000000;stroke-width:3;stroke-miterlimit:10;}
</style>
<g id="Layer_1">
	<g>
		<path d="M224.6,73.5c3,0.4,6.1,1.2,8.5,3.4c1.2,1.1,2.1,2.5,2.6,4c0.5,1.5,0.6,3.2,0.4,4.8c-0.3,3.2-2,6.3-4.4,8.5
			c-2.4,2.2-5.7,3.5-9,3.8c-3.3,0.3-6.7-0.5-9.6-2.1c-1.4-0.8-2.8-1.8-4-3.1c-1.2-1.3-2.1-2.7-2.8-4.3c-1.3-3-2.2-6.2-2.1-9.7
			c0-1.7,0.3-3.4,0.8-5.1c0.6-1.7,1.4-3.2,2.4-4.7c2.1-2.8,4.7-5,7.7-6.6c3-1.7,6.3-2.6,9.7-3c1.7-0.2,3.4-0.2,5-0.1
			c0.8,0,1.7,0.1,2.5,0.2c0.8,0.1,1.7,0.3,2.5,0.4c3.3,0.7,6.6,2.1,9.4,4.2c2.8,2.1,5.1,4.9,6.8,7.9c1.6,3,2.7,6.3,3.3,9.6
			c0.6,3.3,0.8,6.7,0.6,10.1c-0.1,0.9-0.2,1.7-0.3,2.6c-0.2,0.9-0.4,1.7-0.6,2.5c-0.4,1.7-1,3.3-1.7,4.9c-1.4,3.2-3.3,6.2-5.7,8.7
			c-1.2,1.3-2.6,2.5-4,3.5c-1.4,1-2.8,1.9-4.3,2.7c-5.9,3.2-12.8,5-19.7,4.7c-6.9-0.3-13.6-2.4-19.3-5.6l-2.1-1.2
			c-0.7-0.4-1.4-0.8-2.1-1.3l-2-1.4l-1-0.7c-0.3-0.2-0.7-0.5-1-0.8c-2.7-2.1-5.2-4.5-7.3-7.3c-4.2-5.5-6.8-12.4-7.5-19.1
			c-0.8-6.8-0.1-13.5,1.4-19.9c0.8-3.2,1.8-6.3,3-9.4c0.6-1.5,1.3-3,2.1-4.6c0.4-0.8,0.8-1.5,1.3-2.3c0.4-0.7,0.9-1.4,1.4-2.1
			c1.9-2.8,4-5.4,6.5-7.8c1.2-1.2,2.6-2.4,4-3.4c1.5-1.1,2.8-1.9,4.3-2.8c5.7-3.3,11.7-5.9,18-7.7c3.2-0.9,6.4-1.5,9.7-2l2.5-0.3
			l1.2-0.1l1.3-0.1l2.5-0.1c0.8,0,1.7,0,2.5,0.1c1.7,0,3.3,0.2,5,0.4c0.8,0.1,1.7,0.3,2.5,0.4c0.8,0.2,1.7,0.3,2.5,0.5
			c3.3,0.8,6.5,1.7,9.6,3.1l2.3,1c0.8,0.4,1.5,0.8,2.2,1.2c0.7,0.4,1.5,0.8,2.2,1.2l2.1,1.4c0.7,0.5,1.4,0.9,2.1,1.4l2,1.5
			c0.6,0.5,1.3,1,1.9,1.5l1.8,1.6c4.8,4.3,9.3,9.1,13.1,14.4c3.8,5.4,6.9,11.2,9.1,17.4c2.2,6.2,3.5,12.8,3.7,19.3
			c0.3,6.6-0.3,13.1-1.7,19.5c-0.7,3.2-1.6,6.3-2.6,9.4c-1.1,3-2.2,6.1-3.6,9c-1.4,2.9-2.8,5.8-4.4,8.5c-1.6,2.8-3.3,5.4-5.2,8.1
			c-3.9,5.3-8.6,9.9-13.7,13.8c-5.1,3.9-10.7,7.2-16.5,9.8c-5.8,2.7-11.8,4.7-17.9,6.3c-3.1,0.8-6.2,1.4-9.3,1.9
			c-3.1,0.5-6.3,0.9-9.5,1l-0.6,0c0,0-0.1,0-0.1,0l0,0c0,0,0,0-0.1,0c-0.1,0-0.2,0-0.2,0c-0.1,0.1-0.3,0.1-0.5,0.5
			c-0.5,0.6-0.9,1.8-1.1,3.1c-0.5,2.6-0.5,5.6-0.3,8.5c0.3,5.9,1.3,11.9,2.5,17.8l0.1,0.3l0,0.1c0.8,13.5,1.7,27.1,2.5,40.6
			l1.2,20.3l1,20.3l-2.5-20.2l-2.4-20.2c-1.6-13.5-3.1-27-4.6-40.4l0.1,0.4c-0.8-3.1-1.5-6.1-2-9.2c-0.6-3.1-1-6.2-1.3-9.3
			c-0.3-3.2-0.4-6.4,0.1-9.9c0.3-1.7,0.6-3.6,1.9-5.5c0.6-1,1.6-2,2.9-2.6c0.6-0.3,1.3-0.5,2-0.6l0.5-0.1l0.3,0l0.1,0l0.5,0
			c5.8-0.5,11.7-1.8,17.4-3.4c5.7-1.6,11.3-3.7,16.6-6.3c10.6-5.2,20-12.5,26.6-21.9c6.6-9.6,11.5-20.5,13.8-31.9
			c1.1-5.7,1.6-11.4,1.2-17.1c-0.3-5.7-1.5-11.3-3.4-16.6c-1.9-5.3-4.6-10.4-8-15c-3.3-4.6-7.3-8.9-11.7-12.7l-1.6-1.4
			c-0.5-0.5-1.1-0.9-1.7-1.3l-1.7-1.3c-0.6-0.4-1.2-0.8-1.7-1.2l-1.8-1.1c-0.6-0.4-1.2-0.7-1.8-1c-0.6-0.3-1.2-0.7-1.8-1l-1.9-0.8
			c-2.5-1.1-5.2-1.9-7.9-2.5c-1.4-0.2-2.7-0.5-4.1-0.7c-1.4-0.1-2.7-0.3-4.1-0.3c-0.7,0-1.4-0.1-2.1-0.1l-2.1,0.1l-1,0l-1,0.1
			l-2.1,0.2c-2.8,0.4-5.6,0.9-8.3,1.7c-5.5,1.5-10.8,3.7-15.7,6.6c-2.5,1.5-4.5,2.9-6.5,4.8c-1.9,1.9-3.7,4-5.3,6.3
			c-0.4,0.6-0.8,1.2-1.1,1.7c-0.3,0.5-0.6,1.1-1,1.7c-0.6,1.2-1.2,2.5-1.7,3.8c-1.1,2.6-2,5.3-2.7,8.1c-1.4,5.5-2.1,11.1-1.5,16.6
			c0.5,5.4,2.4,10.5,5.5,14.8c1.6,2.1,3.5,4.1,5.6,5.8c0.3,0.2,0.5,0.4,0.8,0.6l0.9,0.6l1.7,1.2c0.6,0.4,1.2,0.8,1.8,1.2l1.8,1.1
			c1.2,0.7,2.5,1.3,3.7,1.9l1.9,0.8c0.6,0.3,1.3,0.5,1.9,0.7l2,0.6c0.7,0.2,1.3,0.3,2,0.4l1,0.2l1,0.1c0.7,0.1,1.3,0.2,2,0.2
			c5.4,0.3,10.8-0.8,15.7-3.3c0.6-0.3,1.2-0.6,1.8-1c0.6-0.4,1.2-0.7,1.7-1.1c1.1-0.7,2.1-1.5,3-2.5c1.8-1.8,3.3-4.1,4.5-6.5
			c0.6-1.2,1.1-2.5,1.4-3.8c0.2-0.7,0.4-1.3,0.5-1.9c0.1-0.6,0.2-1.3,0.3-2c0.3-2.7,0.2-5.5-0.2-8.3c-0.8-5.5-3.1-10.7-7.2-14
			c-2-1.7-4.4-2.8-7.1-3.5c-0.7-0.2-1.3-0.3-2-0.4c-0.7-0.1-1.4-0.2-2.1-0.3c-1.4-0.1-2.8-0.2-4.2-0.1c-2.8,0.2-5.5,0.9-7.9,2.1
			c-2.5,1.2-4.7,2.9-6.4,5c-0.8,1.1-1.5,2.2-2,3.4c-0.4,1.2-0.8,2.5-0.8,3.9c-0.2,2.7,0.4,5.5,1.4,8.2c0.5,1.3,1.1,2.4,2,3.5
			c0.8,1,2,1.9,3.1,2.7c2.4,1.5,5.1,2.4,7.9,2.3c2.8-0.1,5.6-1,7.9-2.8c2.2-1.8,3.8-4.4,4.3-7.2c0.2-1.4,0.2-2.9-0.1-4.3
			c-0.3-1.4-1.1-2.7-2.1-3.8c-1-1.1-2.3-1.9-3.7-2.5C227.6,74.2,226.1,73.8,224.6,73.5z"/>
	</g>
	<path class="st0" d="M62.9,383.9h63.9c18.3,0,33.2-14.9,33.2-33.2v-99c0-18.3-14.9-33.2-33.2-33.2H62.9
		c-18.3,0-33.2,14.9-33.2,33.2v99C29.6,369.1,44.5,383.9,62.9,383.9z"/>
	<path class="st1" d="M158.1,476.2h126.8c21.3,0,38.6-17.3,38.6-38.6V196h-204v241.6C119.5,458.9,136.7,476.2,158.1,476.2z"/>
	<path class="st2" d="M158.1,476.2h126.8c21.3,0,38.6-17.3,38.6-38.6V196h-204v241.6C119.5,458.9,136.7,476.2,158.1,476.2z"/>
	<path class="st3" d="M179.3,477.1h105.3c21.3,0,38.6-17.3,38.6-38.6V197H140.6v241.6C140.6,459.9,157.9,477.1,179.3,477.1z"/>
	<path class="st0" d="M158.1,476.2h126.8c21.3,0,38.6-17.3,38.6-38.6V196h-204v241.6C119.5,458.9,136.7,476.2,158.1,476.2z"/>
	<path class="st4" d="M190.1,197.1c0,0,20.5,31.7-5.9,61s-12.2,54.2-4.9,68.3"/>
	<text transform="matrix(0.8126 0 0 1 394.8903 475.9516)" class="st5 st6 st7">teaNLP</text>
	<path class="st8" d="M212.3,385.3l-52,4.5c-1,0.1-1.9-0.7-2-1.7l-5.2-60.1c-0.1-1,0.7-1.9,1.7-2l52-4.5c1-0.1,1.9,0.7,2,1.7
		l5.2,60.1C214.1,384.3,213.4,385.2,212.3,385.3z"/>
	<line class="st9" x1="169.1" y1="343.2" x2="194.1" y2="340.8"/>
	<line class="st9" x1="169.8" y1="350.5" x2="194.8" y2="348.1"/>
</g>
<g id="Layer_2">
</g>
</svg>
